<svg width="17" height="16" viewBox="0 0 17 16" fill="none" xmlns="http://www.w3.org/2000/svg">
<path d="M9.3012 0.33964C9.08869 0.122169 8.80049 0 8.5 0C8.19951 0 7.91132 0.122169 7.6988 0.33964L0.166169 8.04918C0.113487 8.1031 0.071697 8.16713 0.0431858 8.23758C0.0146746 8.30804 0 8.38356 0 8.45983C0 8.53609 0.0146746 8.61161 0.0431858 8.68207C0.071697 8.75253 0.113487 8.81655 0.166169 8.87048C0.272564 8.97939 0.416868 9.04057 0.567335 9.04057C0.641838 9.04057 0.715612 9.02555 0.784444 8.99637C0.853276 8.96718 0.915819 8.9244 0.968501 8.87048L1.70057 8.11994V14.26C1.70057 14.7214 1.87966 15.164 2.19845 15.4904C2.51723 15.8167 2.9496 16 3.40043 16H13.5996C14.0504 16 14.4828 15.8167 14.8016 15.4904C15.1203 15.164 15.2994 14.7214 15.2994 14.26V8.11994L16.0315 8.87048C16.1379 8.97939 16.2822 9.04057 16.4327 9.04057C16.5831 9.04057 16.7274 8.97939 16.8338 8.87048C16.9402 8.76157 17 8.61385 17 8.45983C17 8.3058 16.9402 8.15809 16.8338 8.04918L14.1662 5.31964V1.49967C14.1662 1.34584 14.1065 1.19831 14.0002 1.08954C13.894 0.980762 13.7498 0.919653 13.5996 0.919653H12.4663C12.3161 0.919653 12.1719 0.980762 12.0657 1.08954C11.9594 1.19831 11.8997 1.34584 11.8997 1.49967V2.99958L9.3012 0.33964ZM14.1662 6.95991V14.26C14.1662 14.4138 14.1065 14.5613 14.0002 14.6701C13.894 14.7789 13.7498 14.84 13.5996 14.84H3.40043C3.25015 14.84 3.10603 14.7789 2.99977 14.6701C2.89351 14.5613 2.83381 14.4138 2.83381 14.26V6.95991L8.5 1.15978L14.1662 6.95991Z" fill="#FFF2D0"/>
</svg>
