<svg width="20" height="19" viewBox="0 0 20 19" fill="none" xmlns="http://www.w3.org/2000/svg">
<path d="M8.125 8.3125C8.45652 8.3125 8.77446 8.18739 9.00888 7.96469C9.2433 7.74199 9.375 7.43994 9.375 7.125C9.375 6.81006 9.2433 6.50801 9.00888 6.28531C8.77446 6.06261 8.45652 5.9375 8.125 5.9375C7.79348 5.9375 7.47554 6.06261 7.24112 6.28531C7.0067 6.50801 6.875 6.81006 6.875 7.125C6.875 7.43994 7.0067 7.74199 7.24112 7.96469C7.47554 8.18739 7.79348 8.3125 8.125 8.3125ZM11.875 8.3125C12.2065 8.3125 12.5245 8.18739 12.7589 7.96469C12.9933 7.74199 13.125 7.43994 13.125 7.125C13.125 6.81006 12.9933 6.50801 12.7589 6.28531C12.5245 6.06261 12.2065 5.9375 11.875 5.9375C11.5435 5.9375 11.2255 6.06261 10.9911 6.28531C10.7567 6.50801 10.625 6.81006 10.625 7.125C10.625 7.43994 10.7567 7.74199 10.9911 7.96469C11.2255 8.18739 11.5435 8.3125 11.875 8.3125ZM15.625 8.3125C15.9565 8.3125 16.2745 8.18739 16.5089 7.96469C16.7433 7.74199 16.875 7.43994 16.875 7.125C16.875 6.81006 16.7433 6.50801 16.5089 6.28531C16.2745 6.06261 15.9565 5.9375 15.625 5.9375C15.2935 5.9375 14.9755 6.06261 14.7411 6.28531C14.5067 6.50801 14.375 6.81006 14.375 7.125C14.375 7.43994 14.5067 7.74199 14.7411 7.96469C14.9755 8.18739 15.2935 8.3125 15.625 8.3125ZM4.375 11.875C4.70652 11.875 5.02446 11.7499 5.25888 11.5272C5.4933 11.3045 5.625 11.0024 5.625 10.6875C5.625 10.3726 5.4933 10.0705 5.25888 9.84781C5.02446 9.62511 4.70652 9.5 4.375 9.5C4.04348 9.5 3.72554 9.62511 3.49112 9.84781C3.2567 10.0705 3.125 10.3726 3.125 10.6875C3.125 11.0024 3.2567 11.3045 3.49112 11.5272C3.72554 11.7499 4.04348 11.875 4.375 11.875ZM8.125 11.875C8.45652 11.875 8.77446 11.7499 9.00888 11.5272C9.2433 11.3045 9.375 11.0024 9.375 10.6875C9.375 10.3726 9.2433 10.0705 9.00888 9.84781C8.77446 9.62511 8.45652 9.5 8.125 9.5C7.79348 9.5 7.47554 9.62511 7.24112 9.84781C7.0067 10.0705 6.875 10.3726 6.875 10.6875C6.875 11.0024 7.0067 11.3045 7.24112 11.5272C7.47554 11.7499 7.79348 11.875 8.125 11.875ZM11.875 11.875C12.2065 11.875 12.5245 11.7499 12.7589 11.5272C12.9933 11.3045 13.125 11.0024 13.125 10.6875C13.125 10.3726 12.9933 10.0705 12.7589 9.84781C12.5245 9.62511 12.2065 9.5 11.875 9.5C11.5435 9.5 11.2255 9.62511 10.9911 9.84781C10.7567 10.0705 10.625 10.3726 10.625 10.6875C10.625 11.0024 10.7567 11.3045 10.9911 11.5272C11.2255 11.7499 11.5435 11.875 11.875 11.875ZM15.625 11.875C15.9565 11.875 16.2745 11.7499 16.5089 11.5272C16.7433 11.3045 16.875 11.0024 16.875 10.6875C16.875 10.3726 16.7433 10.0705 16.5089 9.84781C16.2745 9.62511 15.9565 9.5 15.625 9.5C15.2935 9.5 14.9755 9.62511 14.7411 9.84781C14.5067 10.0705 14.375 10.3726 14.375 10.6875C14.375 11.0024 14.5067 11.3045 14.7411 11.5272C14.9755 11.7499 15.2935 11.875 15.625 11.875ZM4.375 15.4375C4.70652 15.4375 5.02446 15.3124 5.25888 15.0897C5.4933 14.867 5.625 14.5649 5.625 14.25C5.625 13.9351 5.4933 13.633 5.25888 13.4103C5.02446 13.1876 4.70652 13.0625 4.375 13.0625C4.04348 13.0625 3.72554 13.1876 3.49112 13.4103C3.2567 13.633 3.125 13.9351 3.125 14.25C3.125 14.5649 3.2567 14.867 3.49112 15.0897C3.72554 15.3124 4.04348 15.4375 4.375 15.4375ZM8.125 15.4375C8.45652 15.4375 8.77446 15.3124 9.00888 15.0897C9.2433 14.867 9.375 14.5649 9.375 14.25C9.375 13.9351 9.2433 13.633 9.00888 13.4103C8.77446 13.1876 8.45652 13.0625 8.125 13.0625C7.79348 13.0625 7.47554 13.1876 7.24112 13.4103C7.0067 13.633 6.875 13.9351 6.875 14.25C6.875 14.5649 7.0067 14.867 7.24112 15.0897C7.47554 15.3124 7.79348 15.4375 8.125 15.4375ZM11.875 15.4375C12.2065 15.4375 12.5245 15.3124 12.7589 15.0897C12.9933 14.867 13.125 14.5649 13.125 14.25C13.125 13.9351 12.9933 13.633 12.7589 13.4103C12.5245 13.1876 12.2065 13.0625 11.875 13.0625C11.5435 13.0625 11.2255 13.1876 10.9911 13.4103C10.7567 13.633 10.625 13.9351 10.625 14.25C10.625 14.5649 10.7567 14.867 10.9911 15.0897C11.2255 15.3124 11.5435 15.4375 11.875 15.4375Z" fill="#FFF2D0"/>
<path d="M17.5 0H2.5C1.83696 0 1.20107 0.250223 0.732233 0.695621C0.263392 1.14102 0 1.74511 0 2.375L0 16.625C0 17.2549 0.263392 17.859 0.732233 18.3044C1.20107 18.7498 1.83696 19 2.5 19H17.5C18.163 19 18.7989 18.7498 19.2678 18.3044C19.7366 17.859 20 17.2549 20 16.625V2.375C20 1.74511 19.7366 1.14102 19.2678 0.695621C18.7989 0.250223 18.163 0 17.5 0ZM1.25 4.58019C1.25 4.0185 1.81 3.5625 2.5 3.5625H17.5C18.19 3.5625 18.75 4.0185 18.75 4.58019V16.7948C18.75 17.3565 18.19 17.8125 17.5 17.8125H2.5C1.81 17.8125 1.25 17.3565 1.25 16.7948V4.58019Z" fill="#FFF2D0"/>
</svg>
