<svg width="17" height="13" viewBox="0 0 17 13" fill="none" xmlns="http://www.w3.org/2000/svg">
<path d="M1.0625 1.9168C2.00281 1.54973 3.35113 1.1539 4.66225 1.03088C6.07538 0.897946 7.27388 1.09338 7.96875 1.77691V11.4456C6.97531 10.9198 5.71625 10.8474 4.55494 10.9565C3.30119 11.0755 2.03681 11.4138 1.0625 11.761V1.9168ZM9.03125 1.77691C9.72612 1.09338 10.9246 0.897946 12.3378 1.03088C13.6489 1.1539 14.9972 1.54973 15.9375 1.9168V11.761C14.9621 11.4138 13.6988 11.0745 12.4451 10.9575C11.2827 10.8474 10.0247 10.9188 9.03125 11.4456V1.77691ZM8.5 0.880089C7.45344 0.0398104 5.93619 -0.0851897 4.55494 0.0437787C2.94631 0.195564 1.32281 0.710446 0.311313 1.14001C0.218502 1.17942 0.139799 1.24294 0.0845973 1.32298C0.0293959 1.40302 2.82321e-05 1.4962 0 1.5914L0 12.5041C2.46096e-05 12.5871 0.022352 12.6688 0.0649369 12.7416C0.107522 12.8145 0.169003 12.8762 0.243749 12.9211C0.318495 12.966 0.404116 12.9927 0.49277 12.9987C0.581423 13.0047 0.670276 12.9899 0.751188 12.9555C1.68831 12.5587 3.19813 12.0815 4.66119 11.9436C6.15825 11.8027 7.41306 12.0299 8.08563 12.8136C8.1354 12.8716 8.19848 12.9183 8.2702 12.9504C8.34192 12.9826 8.42045 12.9993 8.5 12.9993C8.57955 12.9993 8.65808 12.9826 8.7298 12.9504C8.80152 12.9183 8.8646 12.8716 8.91438 12.8136C9.58694 12.0299 10.8418 11.8027 12.3378 11.9436C13.8019 12.0815 15.3128 12.5587 16.2488 12.9555C16.3297 12.9899 16.4186 13.0047 16.5072 12.9987C16.5959 12.9927 16.6815 12.966 16.7563 12.9211C16.831 12.8762 16.8925 12.8145 16.9351 12.7416C16.9776 12.6688 17 12.5871 17 12.5041V1.5914C17 1.4962 16.9706 1.40302 16.9154 1.32298C16.8602 1.24294 16.7815 1.17942 16.6887 1.14001C15.6772 0.710446 14.0537 0.195564 12.4451 0.0437787C11.0638 -0.0861818 9.54656 0.0398104 8.5 0.880089Z" fill="#FFF2D0"/>
</svg>
